<svg
   xmlns="http://www.w3.org/2000/svg"
   viewBox="0 0 151.03368 252.34557"
   >
<g transform="translate(11.260879,-142.85698)">
    <g transform="matrix(0.28222154,0,0,0.28222154,-197.38316,-135.65334)">
      <rect
         height="894.14001"
         width="535.15997"
         y="986.84998"
         x="659.48999" />
      <path
         style="fill:#141414;fill-rule:evenodd"
         d="m 178.52,60 c 0,0 -30.591,5.5566 -44.18,12.621 -12.608,6.5546 -33.133,26.824 -33.133,26.824 l 104.14,48.915 145.16,-1.58 55.22,-80.469 L 178.517,60 Z m -94.666,63.12 -18.932,290.32 28.619,17.57 75.519,-45.97 14.2,-216.17 z m 108.45,277.7 -83.625,50.49 69.424,34.715 157.79,7.8887 92.686,-33.543 -87.922,-58.707 -148.35,-0.84375 z m -100.5,73.37 -26.221,18.4 -5.578,287.85 100.97,-47.97 8.92,-220.35 z m 232.68,278.9 -148.59,0.5 -101.56,49.029 c 0,0 17.691,15.286 28.002,20.549 9.6785,4.9404 31.037,9.9727 31.037,9.9727 l 243.15,0.99805 -52.031,-81.049 z"
         transform="translate(659.49,986.85)" />
      <path
         d="m 427.82,77.355 -58.381,86.781 -9.4688,219.32 80.471,53.646 20.514,-20.512 14.199,-277.7 c 0,0 -7.2876,-24.26 -17.627,-36.465 -6.7991,-8.026 -29.707,-25.07 -29.707,-25.07 z m 23.666,400.77 -97.826,34.711 -7.8887,225.63 52.068,83.625 c 0,0 31.567,-18.319 41.025,-33.135 9.335,-14.622 12.621,-50.49 12.621,-50.49 l 11.04,-244.56 -11.04,-15.78 z"
         transform="translate(659.49,986.85)"
         style="fill:#ffffff;fill-rule:evenodd" />
    </g>
  </g>
</svg>
